
<svg xmlns="http://www.w3.org/2000/svg" version="1.1" xmlns:xlink="http://www.w3.org/1999/xlink" preserveAspectRatio="none" x="0px" y="0px" width="295px" height="565px" viewBox="0 0 295 565">
<defs>
<g id="Symbol_1_copy_3_0_Layer4_0_FILL">
<path fill="#121212" stroke="none" d="
M -541.9 -467.7
L -541.9 660.9 49.1 660.9 49.1 -467.7 -541.9 -467.7 Z"/>
</g>

<g id="Symbol_1_copy_3_0_Layer3_0_FILL">
<path fill="#202020" stroke="none" d="
M 49.1 660.9
L 49.1 537 -541.9 537 -541.9 660.9 49.1 660.9
M -476.9 580.05
Q -470.4 573.65 -461.2 573.65 -452.05 573.65 -445.5 580.05 -439 586.55 -439 595.8 -439 605 -445.5 611.45 -452.05 618.05 -461.2 618.05 -470.4 618.05 -476.9 611.45 -483.4 605 -483.4 595.8 -483.4 586.55 -476.9 580.05
M -332.45 611.45
Q -339 605 -339 595.8 -339 586.55 -332.45 580.05 -325.95 573.65 -316.8 573.65 -307.6 573.65 -301.1 580.05 -294.55 586.55 -294.55 595.8 -294.55 605 -301.1 611.45 -307.6 618.05 -316.8 618.05 -325.95 618.05 -332.45 611.45
M -28.9 573.65
Q -19.7 573.65 -13.2 580.05 -6.7 586.55 -6.7 595.8 -6.7 605 -13.2 611.45 -19.7 618.05 -28.9 618.05 -38.05 618.05 -44.6 611.45 -51.1 605 -51.1 595.8 -51.1 586.55 -44.6 580.05 -38.05 573.65 -28.9 573.65
M -186.75 580.05
Q -180.2 573.65 -171 573.65 -161.85 573.65 -155.35 580.05 -148.85 586.55 -148.85 595.8 -148.85 605 -155.35 611.45 -161.85 618.05 -171 618.05 -180.2 618.05 -186.75 611.45 -193.25 605 -193.25 595.8 -193.25 586.55 -186.75 580.05 Z"/>

<path fill="#666666" stroke="none" d="
M -171 573.65
Q -180.2 573.65 -186.75 580.05 -193.25 586.55 -193.25 595.8 -193.25 605 -186.75 611.45 -180.2 618.05 -171 618.05 -161.85 618.05 -155.35 611.45 -148.85 605 -148.85 595.8 -148.85 586.55 -155.35 580.05 -161.85 573.65 -171 573.65
M -13.2 580.05
Q -19.7 573.65 -28.9 573.65 -38.05 573.65 -44.6 580.05 -51.1 586.55 -51.1 595.8 -51.1 605 -44.6 611.45 -38.05 618.05 -28.9 618.05 -19.7 618.05 -13.2 611.45 -6.7 605 -6.7 595.8 -6.7 586.55 -13.2 580.05
M -461.2 573.65
Q -470.4 573.65 -476.9 580.05 -483.4 586.55 -483.4 595.8 -483.4 605 -476.9 611.45 -470.4 618.05 -461.2 618.05 -452.05 618.05 -445.5 611.45 -439 605 -439 595.8 -439 586.55 -445.5 580.05 -452.05 573.65 -461.2 573.65 Z"/>

<path fill="#D6D8DD" stroke="none" d="
M -339 595.8
Q -339 605 -332.45 611.45 -325.95 618.05 -316.8 618.05 -307.6 618.05 -301.1 611.45 -294.55 605 -294.55 595.8 -294.55 586.55 -301.1 580.05 -307.6 573.65 -316.8 573.65 -325.95 573.65 -332.45 580.05 -339 586.55 -339 595.8 Z"/>
</g>

<g id="Symbol_1_copy_3_0_Layer2_0_STROKES_1_FILL">
<path fill="#424242" stroke="none" d="
M -496.3 101.05
Q -496.733984375 100.6052734375 -497.35 100.6
L -503.35 100.6
Q -503.966015625 100.6052734375 -504.4 101.05 -504.8447265625 101.483984375 -504.85 102.1 -504.8447265625 102.716015625 -504.4 103.15 -503.966015625 103.5947265625 -503.35 103.6
L -497.35 103.6
Q -496.733984375 103.5947265625 -496.3 103.15 -495.8552734375 102.716015625 -495.85 102.1 -495.8552734375 101.483984375 -496.3 101.05
M -389.35 103.6
Q -388.733984375 103.5947265625 -388.3 103.15 -387.8552734375 102.716015625 -387.85 102.1 -387.8552734375 101.483984375 -388.3 101.05 -388.733984375 100.6052734375 -389.35 100.6
L -395.35 100.6
Q -395.966015625 100.6052734375 -396.4 101.05 -396.8447265625 101.483984375 -396.85 102.1 -396.8447265625 102.716015625 -396.4 103.15 -395.966015625 103.5947265625 -395.35 103.6
L -389.35 103.6
M -375.85 102.1
Q -375.8552734375 101.483984375 -376.3 101.05 -376.733984375 100.6052734375 -377.35 100.6
L -383.35 100.6
Q -383.966015625 100.6052734375 -384.4 101.05 -384.8447265625 101.483984375 -384.85 102.1 -384.8447265625 102.716015625 -384.4 103.15 -383.966015625 103.5947265625 -383.35 103.6
L -377.35 103.6
Q -376.733984375 103.5947265625 -376.3 103.15 -375.8552734375 102.716015625 -375.85 102.1
M -363.85 102.1
Q -363.8552734375 101.483984375 -364.3 101.05 -364.733984375 100.6052734375 -365.35 100.6
L -371.35 100.6
Q -371.966015625 100.6052734375 -372.4 101.05 -372.8447265625 101.483984375 -372.85 102.1 -372.8447265625 102.716015625 -372.4 103.15 -371.966015625 103.5947265625 -371.35 103.6
L -365.35 103.6
Q -364.733984375 103.5947265625 -364.3 103.15 -363.8552734375 102.716015625 -363.85 102.1
M -353.35 103.6
Q -352.733984375 103.5947265625 -352.3 103.15 -351.8552734375 102.716015625 -351.85 102.1 -351.8552734375 101.483984375 -352.3 101.05 -352.733984375 100.6052734375 -353.35 100.6
L -359.35 100.6
Q -359.966015625 100.6052734375 -360.4 101.05 -360.8447265625 101.483984375 -360.85 102.1 -360.8447265625 102.716015625 -360.4 103.15 -359.966015625 103.5947265625 -359.35 103.6
L -353.35 103.6
M -339.85 102.1
Q -339.8552734375 101.483984375 -340.3 101.05 -340.733984375 100.6052734375 -341.35 100.6
L -347.35 100.6
Q -347.966015625 100.6052734375 -348.4 101.05 -348.8447265625 101.483984375 -348.85 102.1 -348.8447265625 102.716015625 -348.4 103.15 -347.966015625 103.5947265625 -347.35 103.6
L -341.35 103.6
Q -340.733984375 103.5947265625 -340.3 103.15 -339.8552734375 102.716015625 -339.85 102.1
M -329.35 103.6
Q -328.733984375 103.5947265625 -328.3 103.15 -327.8552734375 102.716015625 -327.85 102.1 -327.8552734375 101.483984375 -328.3 101.05 -328.733984375 100.6052734375 -329.35 100.6
L -335.35 100.6
Q -335.966015625 100.6052734375 -336.4 101.05 -336.8447265625 101.483984375 -336.85 102.1 -336.8447265625 102.716015625 -336.4 103.15 -335.966015625 103.5947265625 -335.35 103.6
L -329.35 103.6
M -484.3 101.05
Q -484.733984375 100.6052734375 -485.35 100.6
L -491.35 100.6
Q -491.966015625 100.6052734375 -492.4 101.05 -492.8447265625 101.483984375 -492.85 102.1 -492.8447265625 102.716015625 -492.4 103.15 -491.966015625 103.5947265625 -491.35 103.6
L -485.35 103.6
Q -484.733984375 103.5947265625 -484.3 103.15 -483.8552734375 102.716015625 -483.85 102.1 -483.8552734375 101.483984375 -484.3 101.05
M -473.35 103.6
Q -472.733984375 103.5947265625 -472.3 103.15 -471.8552734375 102.716015625 -471.85 102.1 -471.8552734375 101.483984375 -472.3 101.05 -472.733984375 100.6052734375 -473.35 100.6
L -479.35 100.6
Q -479.966015625 100.6052734375 -480.4 101.05 -480.8447265625 101.483984375 -480.85 102.1 -480.8447265625 102.716015625 -480.4 103.15 -479.966015625 103.5947265625 -479.35 103.6
L -473.35 103.6
M -459.85 102.1
Q -459.8552734375 101.483984375 -460.3 101.05 -460.733984375 100.6052734375 -461.35 100.6
L -467.35 100.6
Q -467.966015625 100.6052734375 -468.4 101.05 -468.8447265625 101.483984375 -468.85 102.1 -468.8447265625 102.716015625 -468.4 103.15 -467.966015625 103.5947265625 -467.35 103.6
L -461.35 103.6
Q -460.733984375 103.5947265625 -460.3 103.15 -459.8552734375 102.716015625 -459.85 102.1
M -455.35 103.6
L -449.35 103.6
Q -448.733984375 103.5947265625 -448.3 103.15 -447.8552734375 102.716015625 -447.85 102.1 -447.8552734375 101.483984375 -448.3 101.05 -448.733984375 100.6052734375 -449.35 100.6
L -455.35 100.6
Q -455.966015625 100.6052734375 -456.4 101.05 -456.8447265625 101.483984375 -456.85 102.1 -456.8447265625 102.716015625 -456.4 103.15 -455.966015625 103.5947265625 -455.35 103.6
M -436.3 103.15
Q -435.8552734375 102.716015625 -435.85 102.1 -435.8552734375 101.483984375 -436.3 101.05 -436.733984375 100.6052734375 -437.35 100.6
L -443.35 100.6
Q -443.966015625 100.6052734375 -444.4 101.05 -444.8447265625 101.483984375 -444.85 102.1 -444.8447265625 102.716015625 -444.4 103.15 -443.966015625 103.5947265625 -443.35 103.6
L -437.35 103.6
Q -436.733984375 103.5947265625 -436.3 103.15
M -423.85 102.1
Q -423.8552734375 101.483984375 -424.3 101.05 -424.733984375 100.6052734375 -425.35 100.6
L -431.35 100.6
Q -431.966015625 100.6052734375 -432.4 101.05 -432.8447265625 101.483984375 -432.85 102.1 -432.8447265625 102.716015625 -432.4 103.15 -431.966015625 103.5947265625 -431.35 103.6
L -425.35 103.6
Q -424.733984375 103.5947265625 -424.3 103.15 -423.8552734375 102.716015625 -423.85 102.1
M -408.4 103.15
Q -407.966015625 103.5947265625 -407.35 103.6
L -401.35 103.6
Q -400.733984375 103.5947265625 -400.3 103.15 -399.8552734375 102.716015625 -399.85 102.1 -399.8552734375 101.483984375 -400.3 101.05 -400.733984375 100.6052734375 -401.35 100.6
L -407.35 100.6
Q -407.966015625 100.6052734375 -408.4 101.05 -408.8447265625 101.483984375 -408.85 102.1 -408.8447265625 102.716015625 -408.4 103.15
M -413.35 103.6
Q -412.733984375 103.5947265625 -412.3 103.15 -411.8552734375 102.716015625 -411.85 102.1 -411.8552734375 101.483984375 -412.3 101.05 -412.733984375 100.6052734375 -413.35 100.6
L -419.35 100.6
Q -419.966015625 100.6052734375 -420.4 101.05 -420.8447265625 101.483984375 -420.85 102.1 -420.8447265625 102.716015625 -420.4 103.15 -419.966015625 103.5947265625 -419.35 103.6
L -413.35 103.6
M -232.3 103.15
Q -231.8552734375 102.716015625 -231.85 102.1 -231.8552734375 101.483984375 -232.3 101.05 -232.733984375 100.6052734375 -233.35 100.6
L -239.35 100.6
Q -239.966015625 100.6052734375 -240.4 101.05 -240.8447265625 101.483984375 -240.85 102.1 -240.8447265625 102.716015625 -240.4 103.15 -239.966015625 103.5947265625 -239.35 103.6
L -233.35 103.6
Q -232.733984375 103.5947265625 -232.3 103.15
M -219.85 102.1
Q -219.8552734375 101.483984375 -220.3 101.05 -220.733984375 100.6052734375 -221.35 100.6
L -227.35 100.6
Q -227.966015625 100.6052734375 -228.4 101.05 -228.8447265625 101.483984375 -228.85 102.1 -228.8447265625 102.716015625 -228.4 103.15 -227.966015625 103.5947265625 -227.35 103.6
L -221.35 103.6
Q -220.733984375 103.5947265625 -220.3 103.15 -219.8552734375 102.716015625 -219.85 102.1
M -209.35 103.6
Q -208.733984375 103.5947265625 -208.3 103.15 -207.8552734375 102.716015625 -207.85 102.1 -207.8552734375 101.483984375 -208.3 101.05 -208.733984375 100.6052734375 -209.35 100.6
L -215.35 100.6
Q -215.966015625 100.6052734375 -216.4 101.05 -216.8447265625 101.483984375 -216.85 102.1 -216.8447265625 102.716015625 -216.4 103.15 -215.966015625 103.5947265625 -215.35 103.6
L -209.35 103.6
M -196.3 101.05
Q -196.733984375 100.6052734375 -197.35 100.6
L -203.35 100.6
Q -203.966015625 100.6052734375 -204.4 101.05 -204.8447265625 101.483984375 -204.85 102.1 -204.8447265625 102.716015625 -204.4 103.15 -203.966015625 103.5947265625 -203.35 103.6
L -197.35 103.6
Q -196.733984375 103.5947265625 -196.3 103.15 -195.8552734375 102.716015625 -195.85 102.1 -195.8552734375 101.483984375 -196.3 101.05
M -185.35 100.6
L -191.35 100.6
Q -191.966015625 100.6052734375 -192.4 101.05 -192.8447265625 101.483984375 -192.85 102.1 -192.8447265625 102.716015625 -192.4 103.15 -191.966015625 103.5947265625 -191.35 103.6
L -185.35 103.6
Q -184.733984375 103.5947265625 -184.3 103.15 -183.8552734375 102.716015625 -183.85 102.1 -183.8552734375 101.483984375 -184.3 101.05 -184.733984375 100.6052734375 -185.35 100.6
M -173.35 100.6
L -179.35 100.6
Q -179.966015625 100.6052734375 -180.4 101.05 -180.8447265625 101.483984375 -180.85 102.1 -180.8447265625 102.716015625 -180.4 103.15 -179.966015625 103.5947265625 -179.35 103.6
L -173.35 103.6
Q -172.733984375 103.5947265625 -172.3 103.15 -171.8552734375 102.716015625 -171.85 102.1 -171.8552734375 101.483984375 -172.3 101.05 -172.733984375 100.6052734375 -173.35 100.6
M -316.3 101.05
Q -316.733984375 100.6052734375 -317.35 100.6
L -323.35 100.6
Q -323.966015625 100.6052734375 -324.4 101.05 -324.8447265625 101.483984375 -324.85 102.1 -324.8447265625 102.716015625 -324.4 103.15 -323.966015625 103.5947265625 -323.35 103.6
L -317.35 103.6
Q -316.733984375 103.5947265625 -316.3 103.15 -315.8552734375 102.716015625 -315.85 102.1 -315.8552734375 101.483984375 -316.3 101.05
M -303.85 102.1
Q -303.8552734375 101.483984375 -304.3 101.05 -304.733984375 100.6052734375 -305.35 100.6
L -311.35 100.6
Q -311.966015625 100.6052734375 -312.4 101.05 -312.8447265625 101.483984375 -312.85 102.1 -312.8447265625 102.716015625 -312.4 103.15 -311.966015625 103.5947265625 -311.35 103.6
L -305.35 103.6
Q -304.733984375 103.5947265625 -304.3 103.15 -303.8552734375 102.716015625 -303.85 102.1
M -293.35 103.6
Q -292.733984375 103.5947265625 -292.3 103.15 -291.8552734375 102.716015625 -291.85 102.1 -291.8552734375 101.483984375 -292.3 101.05 -292.733984375 100.6052734375 -293.35 100.6
L -299.35 100.6
Q -299.966015625 100.6052734375 -300.4 101.05 -300.8447265625 101.483984375 -300.85 102.1 -300.8447265625 102.716015625 -300.4 103.15 -299.966015625 103.5947265625 -299.35 103.6
L -293.35 103.6
M -280.3 101.05
Q -280.733984375 100.6052734375 -281.35 100.6
L -287.35 100.6
Q -287.966015625 100.6052734375 -288.4 101.05 -288.8447265625 101.483984375 -288.85 102.1 -288.8447265625 102.716015625 -288.4 103.15 -287.966015625 103.5947265625 -287.35 103.6
L -281.35 103.6
Q -280.733984375 103.5947265625 -280.3 103.15 -279.8552734375 102.716015625 -279.85 102.1 -279.8552734375 101.483984375 -280.3 101.05
M -269.35 103.6
Q -268.733984375 103.5947265625 -268.3 103.15 -267.8552734375 102.716015625 -267.85 102.1 -267.8552734375 101.483984375 -268.3 101.05 -268.733984375 100.6052734375 -269.35 100.6
L -275.35 100.6
Q -275.966015625 100.6052734375 -276.4 101.05 -276.8447265625 101.483984375 -276.85 102.1 -276.8447265625 102.716015625 -276.4 103.15 -275.966015625 103.5947265625 -275.35 103.6
L -269.35 103.6
M -255.85 102.1
Q -255.8552734375 101.483984375 -256.3 101.05 -256.733984375 100.6052734375 -257.35 100.6
L -263.35 100.6
Q -263.966015625 100.6052734375 -264.4 101.05 -264.8447265625 101.483984375 -264.85 102.1 -264.8447265625 102.716015625 -264.4 103.15 -263.966015625 103.5947265625 -263.35 103.6
L -257.35 103.6
Q -256.733984375 103.5947265625 -256.3 103.15 -255.8552734375 102.716015625 -255.85 102.1
M -243.85 102.1
Q -243.8552734375 101.483984375 -244.3 101.05 -244.733984375 100.6052734375 -245.35 100.6
L -251.35 100.6
Q -251.966015625 100.6052734375 -252.4 101.05 -252.8447265625 101.483984375 -252.85 102.1 -252.8447265625 102.716015625 -252.4 103.15 -251.966015625 103.5947265625 -251.35 103.6
L -245.35 103.6
Q -244.733984375 103.5947265625 -244.3 103.15 -243.8552734375 102.716015625 -243.85 102.1
M -65.35 103.6
Q -64.733984375 103.5947265625 -64.3 103.15 -63.8552734375 102.716015625 -63.85 102.1 -63.8552734375 101.483984375 -64.3 101.05 -64.733984375 100.6052734375 -65.35 100.6
L -71.35 100.6
Q -71.966015625 100.6052734375 -72.4 101.05 -72.8447265625 101.483984375 -72.85 102.1 -72.8447265625 102.716015625 -72.4 103.15 -71.966015625 103.5947265625 -71.35 103.6
L -65.35 103.6
M -51.85 102.1
Q -51.8552734375 101.483984375 -52.3 101.05 -52.733984375 100.6052734375 -53.35 100.6
L -59.35 100.6
Q -59.966015625 100.6052734375 -60.4 101.05 -60.8447265625 101.483984375 -60.85 102.1 -60.8447265625 102.716015625 -60.4 103.15 -59.966015625 103.5947265625 -59.35 103.6
L -53.35 103.6
Q -52.733984375 103.5947265625 -52.3 103.15 -51.8552734375 102.716015625 -51.85 102.1
M -39.85 102.1
Q -39.8552734375 101.483984375 -40.3 101.05 -40.733984375 100.6052734375 -41.35 100.6
L -47.35 100.6
Q -47.966015625 100.6052734375 -48.4 101.05 -48.8447265625 101.483984375 -48.85 102.1 -48.8447265625 102.716015625 -48.4 103.15 -47.966015625 103.5947265625 -47.35 103.6
L -41.35 103.6
Q -40.733984375 103.5947265625 -40.3 103.15 -39.8552734375 102.716015625 -39.85 102.1
M -29.35 103.6
Q -28.733984375 103.5947265625 -28.3 103.15 -27.8552734375 102.716015625 -27.85 102.1 -27.8552734375 101.483984375 -28.3 101.05 -28.733984375 100.6052734375 -29.35 100.6
L -35.35 100.6
Q -35.966015625 100.6052734375 -36.4 101.05 -36.8447265625 101.483984375 -36.85 102.1 -36.8447265625 102.716015625 -36.4 103.15 -35.966015625 103.5947265625 -35.35 103.6
L -29.35 103.6
M -15.85 102.1
Q -15.8552734375 101.483984375 -16.3 101.05 -16.733984375 100.6052734375 -17.35 100.6
L -23.35 100.6
Q -23.966015625 100.6052734375 -24.4 101.05 -24.8447265625 101.483984375 -24.85 102.1 -24.8447265625 102.716015625 -24.4 103.15 -23.966015625 103.5947265625 -23.35 103.6
L -17.35 103.6
Q -16.733984375 103.5947265625 -16.3 103.15 -15.8552734375 102.716015625 -15.85 102.1
M -5.35 103.6
Q -4.733984375 103.5947265625 -4.3 103.15 -3.8552734375 102.716015625 -3.85 102.1 -3.8552734375 101.483984375 -4.3 101.05 -4.733984375 100.6052734375 -5.35 100.6
L -11.35 100.6
Q -11.966015625 100.6052734375 -12.4 101.05 -12.8447265625 101.483984375 -12.85 102.1 -12.8447265625 102.716015625 -12.4 103.15 -11.966015625 103.5947265625 -11.35 103.6
L -5.35 103.6
M -160.3 101.05
Q -160.733984375 100.6052734375 -161.35 100.6
L -167.35 100.6
Q -167.966015625 100.6052734375 -168.4 101.05 -168.8447265625 101.483984375 -168.85 102.1 -168.8447265625 102.716015625 -168.4 103.15 -167.966015625 103.5947265625 -167.35 103.6
L -161.35 103.6
Q -160.733984375 103.5947265625 -160.3 103.15 -159.8552734375 102.716015625 -159.85 102.1 -159.8552734375 101.483984375 -160.3 101.05
M -149.35 103.6
Q -148.733984375 103.5947265625 -148.3 103.15 -147.8552734375 102.716015625 -147.85 102.1 -147.8552734375 101.483984375 -148.3 101.05 -148.733984375 100.6052734375 -149.35 100.6
L -155.35 100.6
Q -155.966015625 100.6052734375 -156.4 101.05 -156.8447265625 101.483984375 -156.85 102.1 -156.8447265625 102.716015625 -156.4 103.15 -155.966015625 103.5947265625 -155.35 103.6
L -149.35 103.6
M -135.85 102.1
Q -135.8552734375 101.483984375 -136.3 101.05 -136.733984375 100.6052734375 -137.35 100.6
L -143.35 100.6
Q -143.966015625 100.6052734375 -144.4 101.05 -144.8447265625 101.483984375 -144.85 102.1 -144.8447265625 102.716015625 -144.4 103.15 -143.966015625 103.5947265625 -143.35 103.6
L -137.35 103.6
Q -136.733984375 103.5947265625 -136.3 103.15 -135.8552734375 102.716015625 -135.85 102.1
M -131.35 103.6
L -125.35 103.6
Q -124.733984375 103.5947265625 -124.3 103.15 -123.8552734375 102.716015625 -123.85 102.1 -123.8552734375 101.483984375 -124.3 101.05 -124.733984375 100.6052734375 -125.35 100.6
L -131.35 100.6
Q -131.966015625 100.6052734375 -132.4 101.05 -132.8447265625 101.483984375 -132.85 102.1 -132.8447265625 102.716015625 -132.4 103.15 -131.966015625 103.5947265625 -131.35 103.6
M -112.3 103.15
Q -111.8552734375 102.716015625 -111.85 102.1 -111.8552734375 101.483984375 -112.3 101.05 -112.733984375 100.6052734375 -113.35 100.6
L -119.35 100.6
Q -119.966015625 100.6052734375 -120.4 101.05 -120.8447265625 101.483984375 -120.85 102.1 -120.8447265625 102.716015625 -120.4 103.15 -119.966015625 103.5947265625 -119.35 103.6
L -113.35 103.6
Q -112.733984375 103.5947265625 -112.3 103.15
M -99.85 102.1
Q -99.8552734375 101.483984375 -100.3 101.05 -100.733984375 100.6052734375 -101.35 100.6
L -107.35 100.6
Q -107.966015625 100.6052734375 -108.4 101.05 -108.8447265625 101.483984375 -108.85 102.1 -108.8447265625 102.716015625 -108.4 103.15 -107.966015625 103.5947265625 -107.35 103.6
L -101.35 103.6
Q -100.733984375 103.5947265625 -100.3 103.15 -99.8552734375 102.716015625 -99.85 102.1
M -84.4 103.15
Q -83.966015625 103.5947265625 -83.35 103.6
L -77.35 103.6
Q -76.733984375 103.5947265625 -76.3 103.15 -75.8552734375 102.716015625 -75.85 102.1 -75.8552734375 101.483984375 -76.3 101.05 -76.733984375 100.6052734375 -77.35 100.6
L -83.35 100.6
Q -83.966015625 100.6052734375 -84.4 101.05 -84.8447265625 101.483984375 -84.85 102.1 -84.8447265625 102.716015625 -84.4 103.15
M -89.35 103.6
Q -88.733984375 103.5947265625 -88.3 103.15 -87.8552734375 102.716015625 -87.85 102.1 -87.8552734375 101.483984375 -88.3 101.05 -88.733984375 100.6052734375 -89.35 100.6
L -95.35 100.6
Q -95.966015625 100.6052734375 -96.4 101.05 -96.8447265625 101.483984375 -96.85 102.1 -96.8447265625 102.716015625 -96.4 103.15 -95.966015625 103.5947265625 -95.35 103.6
L -89.35 103.6
M 7.7 101.05
Q 7.266015625 100.6052734375 6.65 100.6
L 0.65 100.6
Q 0.033984375 100.6052734375 -0.4 101.05 -0.8447265625 101.483984375 -0.85 102.1 -0.8447265625 102.716015625 -0.4 103.15 0.033984375 103.5947265625 0.65 103.6
L 6.65 103.6
Q 7.266015625 103.5947265625 7.7 103.15 8.1447265625 102.716015625 8.15 102.1 8.1447265625 101.483984375 7.7 101.05 Z"/>
</g>

<g id="Symbol_1_copy_3_0_Layer1_0_FILL">
<path fill="#4E4E4E" stroke="none" d="
M -506 446.95
L -506 470 -143.4 470 -143.4 446.95 -506 446.95
M -355.7 -205.4
L -355.7 -228.45 -505.8 -228.45 -505.8 -205.4 -355.7 -205.4
M 2.55 430
L 2.55 406.95 -505.85 406.95 -505.85 430 2.55 430
M 2.55 390
L 2.55 366.95 -505.85 366.95 -505.85 390 2.55 390 Z"/>

<path fill="#D6D8DD" stroke="none" d="
M -246.05 317.95
L -246.05 283.95 -505.8 283.95 -505.8 317.95 -246.05 317.95
M -69.6 -350.75
Q -69.6 -359 -75.4 -364.8 -81.2 -370.55 -89.45 -370.55 -97.6 -370.55 -103.4 -364.8 -109.25 -359 -109.25 -350.75 -109.25 -342.55 -103.4 -336.8 -97.6 -330.9 -89.45 -330.9 -81.2 -330.9 -75.4 -336.8 -69.6 -342.55 -69.6 -350.75
M -505.85 -137.35
L -505.85 -117.85 -448.55 -117.85 -448.55 -137.35 -505.85 -137.35
M -401.9 -245.5
L -401.9 -279.5 -505.8 -279.5 -505.8 -245.5 -401.9 -245.5
M 17.65 -350.75
Q 17.65 -359 11.85 -364.8 6.05 -370.55 -2.2 -370.55 -10.35 -370.55 -16.15 -364.8 -22 -359 -22 -350.75 -22 -342.55 -16.15 -336.8 -10.35 -330.9 -2.2 -330.9 6.05 -330.9 11.85 -336.8 17.65 -342.55 17.65 -350.75 Z"/>

<path fill="#2E2E2E" stroke="none" d="
M -179.75 -137.35
L -179.75 -117.85 -111.4 -117.85 -111.4 -137.35 -179.75 -137.35
M -208.25 -117.85
L -208.25 -137.35 -283.15 -137.35 -283.15 -117.85 -208.25 -117.85
M -423.6 -137.35
L -423.6 -117.85 -310.15 -117.85 -310.15 -137.35 -423.6 -137.35
M 15.5 -117.85
L 15.5 -137.35 -82.7 -137.35 -82.7 -117.85 15.5 -117.85 Z"/>

<path fill="#19FF83" stroke="none" d="
M -505.85 -186.65
L -505.85 -160.65 -366.35 -160.65 -366.35 -186.65 -505.85 -186.65
M 15.5 -160.65
L 15.5 -186.65 -61.45 -186.65 -61.45 -160.65 15.5 -160.65 Z"/>
</g>

<g id="Symbol_1_copy_3_0_Layer0_0_MEMBER_0_MEMBER_0_MEMBER_0_MEMBER_0_FILL">
<path fill="#FFFFFF" stroke="none" d="
M 6.35 22
L 9.95 18.45 3.6 12.05 0 15.55 0 22 6.35 22
M 17.3 11.1
L 17.4 11 11 4.65 10.85 4.65 17.3 11.1
M 22.1 6.4
L 22.1 0.1 15.65 0.1 12.05 3.55 18.5 9.95 22.1 6.4 Z"/>
</g>

<g id="Symbol_1_copy_3_0_Layer0_0_MEMBER_1_MEMBER_0_MEMBER_0_MEMBER_0_FILL">
<path fill="#FFFFFF" stroke="none" d="
M 21.95 21.9
L 21.95 15.55 6.35 0 0.05 0 0.05 6.4 15.4 21.9 21.95 21.9 Z"/>
</g>

<path id="Symbol_1_copy_3_0_Layer1_0_1_STROKES" stroke="#19FF83" stroke-width="9" stroke-linejoin="miter" stroke-linecap="square" stroke-miterlimit="3" fill="none" d="
M -500.45 85.5
L -422.55 9.7 -368.7 180.85 -240.75 59.65 -167.65 169.55 -119.55 159.65 -72.4 13.5 -27.25 71.05 2.6 -19.85"/>
</defs>

<g transform="matrix( 0.5006561279296875, 0, 0, 0.5006561279296875, 271.3,234.15) ">
<g transform="matrix( 1, 0, 0, 1, 0,0) ">
<use xlink:href="#Symbol_1_copy_3_0_Layer4_0_FILL"/>
</g>

<g transform="matrix( 1, 0, 0, 1, 0,0) ">
<use xlink:href="#Symbol_1_copy_3_0_Layer3_0_FILL"/>
</g>

<g transform="matrix( 1, 0, 0, 1, 0,0) ">
<use xlink:href="#Symbol_1_copy_3_0_Layer2_0_STROKES_1_FILL"/>
</g>

<g transform="matrix( 1, 0, 0, 1, 0,0) ">
<use xlink:href="#Symbol_1_copy_3_0_Layer1_0_FILL"/>

<use xlink:href="#Symbol_1_copy_3_0_Layer1_0_1_STROKES"/>
</g>

<g transform="matrix( 2.287017822265625, 0, 0, 2.287353515625, -507.05,-378.05) ">
<use xlink:href="#Symbol_1_copy_3_0_Layer0_0_MEMBER_0_MEMBER_0_MEMBER_0_MEMBER_0_FILL"/>
</g>

<g transform="matrix( 2.287017822265625, 0, 0, 2.287353515625, -507.05,-378.05) ">
<use xlink:href="#Symbol_1_copy_3_0_Layer0_0_MEMBER_1_MEMBER_0_MEMBER_0_MEMBER_0_FILL"/>
</g>
</g>
</svg>
