
<svg xmlns="http://www.w3.org/2000/svg" version="1.1" xmlns:xlink="http://www.w3.org/1999/xlink" preserveAspectRatio="none" x="0px" y="0px" width="295px" height="565px" viewBox="0 0 295 565">
<defs>
<g id="Symbol_1_copy_3_0_Layer0_0_FILL">
<path fill="#19FF83" stroke="none" d="
M -28.9 61.65
L -74.1 4.05 -123.05 155.75 -165.6 164.55 -240 52.7 -366.6 172.6 -420.45 1.35 -506.85 85.4 -500.55 91.85 -424.65 18 -370.85 189.05 -241.55 66.6 -169.75 174.55 -116.1 163.5 -70.75 22.9 -25.6 80.45 8.25 -22.75 -0.3 -25.55 -28.9 61.65
M -505.85 -186.65
L -505.85 -160.65 -366.35 -160.65 -366.35 -186.65 -505.85 -186.65
M 15.5 -160.65
L 15.5 -186.65 -61.45 -186.65 -61.45 -160.65 15.5 -160.65 Z"/>
</g>
</defs>

<g transform="matrix( 0.5006561279296875, 0, 0, 0.5006561279296875, 271.3,234.15) ">
<g transform="matrix( 1, 0, 0, 1, 0,0) ">
<use xlink:href="#Symbol_1_copy_3_0_Layer0_0_FILL"/>
</g>
</g>
</svg>
