
<svg xmlns="http://www.w3.org/2000/svg" version="1.1" xmlns:xlink="http://www.w3.org/1999/xlink" preserveAspectRatio="none" x="0px" y="0px" width="164px" height="313px" viewBox="0 0 164 313">
<defs>
<g id="Symbol_1_copy_0_Layer1_0_FILL">
<path fill="#171B21" stroke="none" d="
M -541.9 -467.7
L -541.9 657.2 49.1 657.2 49.1 -467.7 -541.9 -467.7 Z"/>
</g>

<g id="Symbol_1_copy_0_Layer0_0_FILL">
<path fill="#666975" stroke="none" d="
M 9.6 414.5
Q 11.05 413.05 11.05 411 11.05 408.9 9.6 407.45 8.1 405.95 6 405.95 3.9 405.95 2.45 407.45 0.95 408.9 0.95 411 0.95 413.05 2.45 414.5 3.9 416 6 416 8.1 416 9.6 414.5
M 9.6 324.5
Q 11.05 323.05 11.05 321 11.05 318.9 9.6 317.45 8.1 315.95 6 315.95 3.9 315.95 2.45 317.45 0.95 318.9 0.95 321 0.95 323.05 2.45 324.5 3.9 326 6 326 8.1 326 9.6 324.5
M 9.6 234.5
Q 11.05 233.05 11.05 231 11.05 228.9 9.6 227.45 8.1 225.95 6 225.95 3.9 225.95 2.45 227.45 0.95 228.9 0.95 231 0.95 233.05 2.45 234.5 3.9 236 6 236 8.1 236 9.6 234.5
M 9.6 144.5
Q 11.05 143.05 11.05 141 11.05 138.9 9.6 137.45 8.1 135.95 6 135.95 3.9 135.95 2.45 137.45 0.95 138.9 0.95 141 0.95 143.05 2.45 144.5 3.9 146 6 146 8.1 146 9.6 144.5
M 6 45.95
Q 3.9 45.95 2.45 47.45 0.95 48.9 0.95 51 0.95 53.05 2.45 54.5 3.9 56 6 56 8.1 56 9.6 54.5 11.05 53.05 11.05 51 11.05 48.9 9.6 47.45 8.1 45.95 6 45.95
M -96.95 414.5
Q -95.5 413.05 -95.5 411 -95.5 408.9 -96.95 407.45 -98.45 405.95 -100.55 405.95 -102.6 405.95 -104.05 407.45 -105.55 408.9 -105.55 411 -105.55 413.05 -104.05 414.5 -102.6 416 -100.55 416 -98.45 416 -96.95 414.5
M -65 416
Q -62.95 416 -61.45 414.5 -60 413.05 -60 411 -60 408.9 -61.45 407.45 -62.95 405.95 -65 405.95 -67.1 405.95 -68.55 407.45 -70.05 408.9 -70.05 411 -70.05 413.05 -68.55 414.5 -67.1 416 -65 416
M -79.2 414.5
Q -77.75 413.05 -77.75 411 -77.75 408.9 -79.2 407.45 -80.7 405.95 -82.8 405.95 -84.85 405.95 -86.3 407.45 -87.8 408.9 -87.8 411 -87.8 413.05 -86.3 414.5 -84.85 416 -82.8 416 -80.7 416 -79.2 414.5
M -42.25 411
Q -42.25 408.9 -43.7 407.45 -45.2 405.95 -47.25 405.95 -49.35 405.95 -50.8 407.45 -52.3 408.9 -52.3 411 -52.3 413.05 -50.8 414.5 -49.35 416 -47.25 416 -45.2 416 -43.7 414.5 -42.25 413.05 -42.25 411
M -25.95 414.5
Q -24.5 413.05 -24.5 411 -24.5 408.9 -25.95 407.45 -27.45 405.95 -29.5 405.95 -31.6 405.95 -33.05 407.45 -34.55 408.9 -34.55 411 -34.55 413.05 -33.05 414.5 -31.6 416 -29.5 416 -27.45 416 -25.95 414.5
M -6.7 411
Q -6.7 408.9 -8.15 407.45 -9.65 405.95 -11.75 405.95 -13.85 405.95 -15.3 407.45 -16.8 408.9 -16.8 411 -16.8 413.05 -15.3 414.5 -13.85 416 -11.75 416 -9.65 416 -8.15 414.5 -6.7 413.05 -6.7 411
M -68.55 317.45
Q -70.05 318.9 -70.05 321 -70.05 323.05 -68.55 324.5 -67.1 326 -65 326 -62.95 326 -61.45 324.5 -60 323.05 -60 321 -60 318.9 -61.45 317.45 -62.95 315.95 -65 315.95 -67.1 315.95 -68.55 317.45
M -42.25 321
Q -42.25 318.9 -43.7 317.45 -45.2 315.95 -47.25 315.95 -49.35 315.95 -50.8 317.45 -52.3 318.9 -52.3 321 -52.3 323.05 -50.8 324.5 -49.35 326 -47.25 326 -45.2 326 -43.7 324.5 -42.25 323.05 -42.25 321
M -33.05 317.45
Q -34.55 318.9 -34.55 321 -34.55 323.05 -33.05 324.5 -31.6 326 -29.5 326 -27.45 326 -25.95 324.5 -24.5 323.05 -24.5 321 -24.5 318.9 -25.95 317.45 -27.45 315.95 -29.5 315.95 -31.6 315.95 -33.05 317.45
M -6.7 321
Q -6.7 318.9 -8.15 317.45 -9.65 315.95 -11.75 315.95 -13.85 315.95 -15.3 317.45 -16.8 318.9 -16.8 321 -16.8 323.05 -15.3 324.5 -13.85 326 -11.75 326 -9.65 326 -8.15 324.5 -6.7 323.05 -6.7 321
M -95.5 321
Q -95.5 318.9 -96.95 317.45 -98.45 315.95 -100.55 315.95 -102.6 315.95 -104.05 317.45 -105.55 318.9 -105.55 321 -105.55 323.05 -104.05 324.5 -102.6 326 -100.55 326 -98.45 326 -96.95 324.5 -95.5 323.05 -95.5 321
M -82.8 315.95
Q -84.85 315.95 -86.3 317.45 -87.8 318.9 -87.8 321 -87.8 323.05 -86.3 324.5 -84.85 326 -82.8 326 -80.7 326 -79.2 324.5 -77.75 323.05 -77.75 321 -77.75 318.9 -79.2 317.45 -80.7 315.95 -82.8 315.95
M -104.05 227.45
Q -105.55 228.9 -105.55 231 -105.55 233.05 -104.05 234.5 -102.6 236 -100.55 236 -98.45 236 -96.95 234.5 -95.5 233.05 -95.5 231 -95.5 228.9 -96.95 227.45 -98.45 225.95 -100.55 225.95 -102.6 225.95 -104.05 227.45
M -43.7 234.5
Q -42.25 233.05 -42.25 231 -42.25 228.9 -43.7 227.45 -45.2 225.95 -47.25 225.95 -49.35 225.95 -50.8 227.45 -52.3 228.9 -52.3 231 -52.3 233.05 -50.8 234.5 -49.35 236 -47.25 236 -45.2 236 -43.7 234.5
M -61.45 227.45
Q -62.95 225.95 -65 225.95 -67.1 225.95 -68.55 227.45 -70.05 228.9 -70.05 231 -70.05 233.05 -68.55 234.5 -67.1 236 -65 236 -62.95 236 -61.45 234.5 -60 233.05 -60 231 -60 228.9 -61.45 227.45
M -77.75 231
Q -77.75 228.9 -79.2 227.45 -80.7 225.95 -82.8 225.95 -84.85 225.95 -86.3 227.45 -87.8 228.9 -87.8 231 -87.8 233.05 -86.3 234.5 -84.85 236 -82.8 236 -80.7 236 -79.2 234.5 -77.75 233.05 -77.75 231
M -8.15 234.5
Q -6.7 233.05 -6.7 231 -6.7 228.9 -8.15 227.45 -9.65 225.95 -11.75 225.95 -13.85 225.95 -15.3 227.45 -16.8 228.9 -16.8 231 -16.8 233.05 -15.3 234.5 -13.85 236 -11.75 236 -9.65 236 -8.15 234.5
M -24.5 231
Q -24.5 228.9 -25.95 227.45 -27.45 225.95 -29.5 225.95 -31.6 225.95 -33.05 227.45 -34.55 228.9 -34.55 231 -34.55 233.05 -33.05 234.5 -31.6 236 -29.5 236 -27.45 236 -25.95 234.5 -24.5 233.05 -24.5 231
M -43.7 144.5
Q -42.25 143.05 -42.25 141 -42.25 138.9 -43.7 137.45 -45.2 135.95 -47.25 135.95 -49.35 135.95 -50.8 137.45 -52.3 138.9 -52.3 141 -52.3 143.05 -50.8 144.5 -49.35 146 -47.25 146 -45.2 146 -43.7 144.5
M -61.45 137.45
Q -62.95 135.95 -65 135.95 -67.1 135.95 -68.55 137.45 -70.05 138.9 -70.05 141 -70.05 143.05 -68.55 144.5 -67.1 146 -65 146 -62.95 146 -61.45 144.5 -60 143.05 -60 141 -60 138.9 -61.45 137.45
M -8.15 144.5
Q -6.7 143.05 -6.7 141 -6.7 138.9 -8.15 137.45 -9.65 135.95 -11.75 135.95 -13.85 135.95 -15.3 137.45 -16.8 138.9 -16.8 141 -16.8 143.05 -15.3 144.5 -13.85 146 -11.75 146 -9.65 146 -8.15 144.5
M -24.5 141
Q -24.5 138.9 -25.95 137.45 -27.45 135.95 -29.5 135.95 -31.6 135.95 -33.05 137.45 -34.55 138.9 -34.55 141 -34.55 143.05 -33.05 144.5 -31.6 146 -29.5 146 -27.45 146 -25.95 144.5 -24.5 143.05 -24.5 141
M -86.3 144.5
Q -84.85 146 -82.8 146 -80.7 146 -79.2 144.5 -77.75 143.05 -77.75 141 -77.75 138.9 -79.2 137.45 -80.7 135.95 -82.8 135.95 -84.85 135.95 -86.3 137.45 -87.8 138.9 -87.8 141 -87.8 143.05 -86.3 144.5
M -104.05 137.45
Q -105.55 138.9 -105.55 141 -105.55 143.05 -104.05 144.5 -102.6 146 -100.55 146 -98.45 146 -96.95 144.5 -95.5 143.05 -95.5 141 -95.5 138.9 -96.95 137.45 -98.45 135.95 -100.55 135.95 -102.6 135.95 -104.05 137.45
M -100.55 45.95
Q -102.6 45.95 -104.05 47.45 -105.55 48.9 -105.55 51 -105.55 53.05 -104.05 54.5 -102.6 56 -100.55 56 -98.45 56 -96.95 54.5 -95.5 53.05 -95.5 51 -95.5 48.9 -96.95 47.45 -98.45 45.95 -100.55 45.95
M -79.2 54.5
Q -77.75 53.05 -77.75 51 -77.75 48.9 -79.2 47.45 -80.7 45.95 -82.8 45.95 -84.85 45.95 -86.3 47.45 -87.8 48.9 -87.8 51 -87.8 53.05 -86.3 54.5 -84.85 56 -82.8 56 -80.7 56 -79.2 54.5
M -47.25 45.95
Q -49.35 45.95 -50.8 47.45 -52.3 48.9 -52.3 51 -52.3 53.05 -50.8 54.5 -49.35 56 -47.25 56 -45.2 56 -43.7 54.5 -42.25 53.05 -42.25 51 -42.25 48.9 -43.7 47.45 -45.2 45.95 -47.25 45.95
M -65 45.95
Q -67.1 45.95 -68.55 47.45 -70.05 48.9 -70.05 51 -70.05 53.05 -68.55 54.5 -67.1 56 -65 56 -62.95 56 -61.45 54.5 -60 53.05 -60 51 -60 48.9 -61.45 47.45 -62.95 45.95 -65 45.95
M -11.75 45.95
Q -13.85 45.95 -15.3 47.45 -16.8 48.9 -16.8 51 -16.8 53.05 -15.3 54.5 -13.85 56 -11.75 56 -9.65 56 -8.15 54.5 -6.7 53.05 -6.7 51 -6.7 48.9 -8.15 47.45 -9.65 45.95 -11.75 45.95
M -29.5 45.95
Q -31.6 45.95 -33.05 47.45 -34.55 48.9 -34.55 51 -34.55 53.05 -33.05 54.5 -31.6 56 -29.5 56 -27.45 56 -25.95 54.5 -24.5 53.05 -24.5 51 -24.5 48.9 -25.95 47.45 -27.45 45.95 -29.5 45.95
M -227.3 -262.75
Q -229.3 -260.8 -229.3 -258.05 -229.3 -255.3 -227.3 -253.4 -225.4 -251.4 -222.6 -251.4 -219.85 -251.4 -217.85 -253.4 -215.9 -255.3 -215.9 -258.05 -215.9 -260.8 -217.85 -262.75 -219.85 -264.75 -222.6 -264.75 -225.4 -264.75 -227.3 -262.75
M -194.3 -253.4
Q -192.4 -255.3 -192.4 -258.05 -192.4 -260.8 -194.3 -262.75 -196.3 -264.75 -199.1 -264.75 -201.85 -264.75 -203.8 -262.75 -205.8 -260.8 -205.8 -258.05 -205.8 -255.3 -203.8 -253.4 -201.85 -251.4 -199.1 -251.4 -196.3 -251.4 -194.3 -253.4
M -288.5 -253.4
Q -286.6 -255.3 -286.6 -258.05 -286.6 -260.8 -288.5 -262.75 -290.5 -264.75 -293.2 -264.75 -296 -264.75 -297.95 -262.75 -299.9 -260.8 -299.9 -258.05 -299.9 -255.3 -297.95 -253.4 -296 -251.4 -293.2 -251.4 -290.5 -251.4 -288.5 -253.4
M -310.15 -258.05
Q -310.15 -260.8 -312.05 -262.75 -314.05 -264.75 -316.8 -264.75 -319.55 -264.75 -321.45 -262.75 -323.45 -260.8 -323.45 -258.05 -323.45 -255.3 -321.45 -253.4 -319.55 -251.4 -316.8 -251.4 -314.05 -251.4 -312.05 -253.4 -310.15 -255.3 -310.15 -258.05
M -250.85 -253.4
Q -248.95 -251.4 -246.15 -251.4 -243.45 -251.4 -241.45 -253.4 -239.5 -255.3 -239.5 -258.05 -239.5 -260.8 -241.45 -262.75 -243.45 -264.75 -246.15 -264.75 -248.95 -264.75 -250.85 -262.75 -252.85 -260.8 -252.85 -258.05 -252.85 -255.3 -250.85 -253.4
M -265 -262.75
Q -266.95 -264.75 -269.7 -264.75 -272.45 -264.75 -274.4 -262.75 -276.4 -260.8 -276.4 -258.05 -276.4 -255.3 -274.4 -253.4 -272.45 -251.4 -269.7 -251.4 -266.95 -251.4 -265 -253.4 -263.05 -255.3 -263.05 -258.05 -263.05 -260.8 -265 -262.75
M -506.6 -264.75
Q -509.35 -264.75 -511.25 -262.75 -513.25 -260.8 -513.25 -258.05 -513.25 -255.3 -511.25 -253.4 -509.35 -251.4 -506.6 -251.4 -503.8 -251.4 -501.85 -253.4 -499.9 -255.3 -499.9 -258.05 -499.9 -260.8 -501.85 -262.75 -503.8 -264.75 -506.6 -264.75
M -393.55 -253.4
Q -391.65 -251.4 -388.85 -251.4 -386.1 -251.4 -384.1 -253.4 -382.15 -255.3 -382.15 -258.05 -382.15 -260.8 -384.1 -262.75 -386.1 -264.75 -388.85 -264.75 -391.65 -264.75 -393.55 -262.75 -395.55 -260.8 -395.55 -258.05 -395.55 -255.3 -393.55 -253.4
M -345 -262.75
Q -347 -260.8 -347 -258.05 -347 -255.3 -345 -253.4 -343.1 -251.4 -340.35 -251.4 -337.55 -251.4 -335.6 -253.4 -333.65 -255.3 -333.65 -258.05 -333.65 -260.8 -335.6 -262.75 -337.55 -264.75 -340.35 -264.75 -343.1 -264.75 -345 -262.75
M -358.65 -258.05
Q -358.65 -260.8 -360.55 -262.75 -362.55 -264.75 -365.35 -264.75 -368.1 -264.75 -370.05 -262.75 -372.05 -260.8 -372.05 -258.05 -372.05 -255.3 -370.05 -253.4 -368.1 -251.4 -365.35 -251.4 -362.55 -251.4 -360.55 -253.4 -358.65 -255.3 -358.65 -258.05
M -454.75 -253.4
Q -452.85 -255.3 -452.85 -258.05 -452.85 -260.8 -454.75 -262.75 -456.75 -264.75 -459.45 -264.75 -462.25 -264.75 -464.2 -262.75 -466.15 -260.8 -466.15 -258.05 -466.15 -255.3 -464.2 -253.4 -462.25 -251.4 -459.45 -251.4 -456.75 -251.4 -454.75 -253.4
M -476.4 -258.05
Q -476.4 -260.8 -478.3 -262.75 -480.3 -264.75 -483.05 -264.75 -485.8 -264.75 -487.7 -262.75 -489.7 -260.8 -489.7 -258.05 -489.7 -255.3 -487.7 -253.4 -485.8 -251.4 -483.05 -251.4 -480.3 -251.4 -478.3 -253.4 -476.4 -255.3 -476.4 -258.05
M -407.7 -253.4
Q -405.75 -255.3 -405.75 -258.05 -405.75 -260.8 -407.7 -262.75 -409.7 -264.75 -412.4 -264.75 -415.2 -264.75 -417.1 -262.75 -419.1 -260.8 -419.1 -258.05 -419.1 -255.3 -417.1 -253.4 -415.2 -251.4 -412.4 -251.4 -409.7 -251.4 -407.7 -253.4
M -429.3 -258.05
Q -429.3 -260.8 -431.25 -262.75 -433.2 -264.75 -435.95 -264.75 -438.7 -264.75 -440.65 -262.75 -442.65 -260.8 -442.65 -258.05 -442.65 -255.3 -440.65 -253.4 -438.7 -251.4 -435.95 -251.4 -433.2 -251.4 -431.25 -253.4 -429.3 -255.3 -429.3 -258.05 Z"/>

<path fill="#0031D4" stroke="none" d="
M -246.85 552.95
Q -261.35 552.95 -271.6 563.2 -281.85 573.5 -281.85 588 -281.85 602.55 -271.6 612.8 -261.35 623.05 -246.85 623.05 -232.3 623.05 -222.1 612.8 -211.85 602.55 -211.85 588 -211.85 573.5 -222.1 563.2 -232.3 552.95 -246.85 552.95 Z"/>

<path fill="#898EAF" stroke="none" d="
M -7 559.25
Q -18.2 559.25 -26.1 567.15 -34 575.05 -34 586.25 -34 597.45 -26.1 605.35 -18.2 613.25 -7 613.25 4.2 613.25 12.1 605.35 20 597.45 20 586.25 20 575.05 12.1 567.15 4.2 559.25 -7 559.25
M -128.75 559.25
Q -139.95 559.25 -147.85 567.15 -155.75 575.05 -155.75 586.25 -155.75 597.45 -147.85 605.35 -139.95 613.25 -128.75 613.25 -117.55 613.25 -109.65 605.35 -101.75 597.45 -101.75 586.25 -101.75 575.05 -109.65 567.15 -117.55 559.25 -128.75 559.25
M -383.6 567.15
Q -391.5 575.05 -391.5 586.25 -391.5 597.45 -383.6 605.35 -375.7 613.25 -364.5 613.25 -353.3 613.25 -345.4 605.35 -337.5 597.45 -337.5 586.25 -337.5 575.05 -345.4 567.15 -353.3 559.25 -364.5 559.25 -375.7 559.25 -383.6 567.15
M -459.25 586.25
Q -459.25 575.05 -467.15 567.15 -475.05 559.25 -486.25 559.25 -497.45 559.25 -505.35 567.15 -513.25 575.05 -513.25 586.25 -513.25 597.45 -505.35 605.35 -497.45 613.25 -486.25 613.25 -475.05 613.25 -467.15 605.35 -459.25 597.45 -459.25 586.25 Z"/>

<path fill="#353B4C" stroke="none" d="
M -430.4 418.9
L -430.4 432.95 -307.4 432.95 -307.4 418.9 -430.4 418.9
M -307.4 342.95
L -307.4 328.9 -430.4 328.9 -430.4 342.95 -307.4 342.95
M -307.4 252.95
L -307.4 238.9 -430.4 238.9 -430.4 252.95 -307.4 252.95
M -307.4 162.95
L -307.4 148.9 -430.4 148.9 -430.4 162.95 -307.4 162.95
M -307.4 72.95
L -307.4 58.9 -430.4 58.9 -430.4 72.95 -307.4 72.95 Z"/>

<path fill="#19FF83" stroke="none" d="
M -463 380.7
L -491 380.7
Q -507 380.7 -507 396.7
L -507 424.7
Q -507 440.7 -491 440.7
L -463 440.7
Q -447 440.7 -447 424.7
L -447 396.7
Q -447 380.7 -463 380.7
M -507 306.7
L -507 334.7
Q -507 340.3 -505 343.95 -501.4 350.7 -491 350.7
L -463 350.7
Q -452.6 350.7 -448.95 343.95 -447 340.3 -447 334.7
L -447 306.7
Q -447 290.7 -463 290.7
L -491 290.7
Q -507 290.7 -507 306.7
M -491 200.7
Q -507 200.7 -507 216.7
L -507 244.7
Q -507 260.7 -491 260.7
L -463 260.7
Q -447 260.7 -447 244.7
L -447 216.7
Q -447 200.7 -463 200.7
L -491 200.7
M -447 126.7
Q -447 110.7 -463 110.7
L -491 110.7
Q -507 110.7 -507 126.7
L -507 154.7
Q -507 170.7 -491 170.7
L -463 170.7
Q -447 170.7 -447 154.7
L -447 126.7
M -447 36.7
Q -447 20.7 -463 20.7
L -491 20.7
Q -507 20.7 -507 36.7
L -507 64.7
Q -507 80.7 -491 80.7
L -463 80.7
Q -447 80.7 -447 64.7
L -447 36.7 Z"/>

<path fill="#D6D8DD" stroke="none" d="
M -338.85 386.9
L -430.4 386.9 -430.4 407.95 -338.85 407.95 -338.85 386.9
M -430.4 296.9
L -430.4 317.95 -338.85 317.95 -338.85 296.9 -430.4 296.9
M -338.85 227.95
L -338.85 206.9 -430.4 206.9 -430.4 227.95 -338.85 227.95
M -430.4 116.9
L -430.4 137.95 -338.85 137.95 -338.85 116.9 -430.4 116.9
M -338.85 47.95
L -338.85 26.9 -430.4 26.9 -430.4 47.95 -338.85 47.95
M -513.95 -124.3
L -513.95 -95.7 -286.95 -95.7 -286.95 -124.3 -513.95 -124.3
M -347 -276.65
L -347 -305.25 -514 -305.25 -514 -276.65 -347 -276.65 Z"/>

<path fill="#22262D" stroke="none" d="
M -84.5 -69
L -104.5 -69
Q -114.65 -69 -121.85 -61.85 -129 -54.65 -129 -44.5 -129 -34.35 -121.85 -27.2 -117.4 -22.75 -111.8 -21.05 -108.4 -20 -104.5 -20
L -84.5 -20
Q -80.6 -20 -77.15 -21.05 -71.6 -22.75 -67.2 -27.2 -60 -34.35 -60 -44.5 -60 -54.65 -67.2 -61.85 -74.35 -69 -84.5 -69
M -218 -44.5
Q -218 -34.35 -210.85 -27.2 -206.4 -22.75 -200.8 -21.05 -197.4 -20 -193.5 -20
L -161.5 -20
Q -157.6 -20 -154.15 -21.05 -148.6 -22.75 -144.2 -27.2 -137 -34.35 -137 -44.5 -137 -54.65 -144.2 -61.85 -151.35 -69 -161.5 -69
L -193.5 -69
Q -203.65 -69 -210.85 -61.85 -218 -54.65 -218 -44.5
M 1.85 -21.05
Q 7.4 -22.75 11.8 -27.2 19 -34.35 19 -44.5 19 -54.65 11.8 -61.85 4.65 -69 -5.5 -69
L -25.5 -69
Q -35.65 -69 -42.85 -61.85 -50 -54.65 -50 -44.5 -50 -34.35 -42.85 -27.2 -38.4 -22.75 -32.8 -21.05 -29.4 -20 -25.5 -20
L -5.5 -20
Q -1.6 -20 1.85 -21.05 Z"/>

<path fill="#22252F" stroke="none" d="
M -494 -74
Q -502.3 -74 -508.15 -68.15 -514 -62.3 -514 -54
L -514 -37
Q -514 -28.7 -508.15 -22.85 -502.3 -17 -494 -17
L -258 -17
Q -251.1 -17 -245.85 -21.05 -244.85 -21.85 -243.85 -22.85 -238 -28.7 -238 -37
L -238 -54
Q -238 -62.3 -243.85 -68.15 -249.7 -74 -258 -74
L -494 -74 Z"/>

<path fill="#0031CF" stroke="none" d="
M -494 -228.95
Q -514 -228.95 -514 -208.95
L -514 -182
Q -514 -162 -494 -162
L -277 -162
Q -257 -162 -257 -182
L -257 -208.95
Q -257 -228.95 -277 -228.95
L -494 -228.95 Z"/>

<path fill="#606C7C" stroke="none" d="
M 19 -111.5
Q 19 -120.8 12.4 -127.4 5.8 -134 -3.5 -134
L -148.5 -134
Q -157.8 -134 -164.4 -127.4 -171 -120.8 -171 -111.5 -171 -102.2 -164.4 -95.6 -157.8 -89 -148.5 -89
L -3.5 -89
Q 5.8 -89 12.4 -95.6 19 -102.2 19 -111.5 Z"/>

<path fill="#3BDB96" stroke="none" d="
M 20 -208.95
Q 20 -228.95 0 -228.95
L -217 -228.95
Q -237 -228.95 -237 -208.95
L -237 -182
Q -237 -162 -217 -162
L 0 -162
Q 20 -162 20 -182
L 20 -208.95 Z"/>

<path fill="#25242C" stroke="none" d="
M 19 -352.95
Q 19 -362.5 12.25 -369.25 5.55 -375.95 -4 -375.95
L -117 -375.95
Q -126.55 -375.95 -133.3 -369.25 -140 -362.5 -140 -352.95 -140 -343.4 -133.3 -336.7 -126.55 -329.95 -117 -329.95
L -4 -329.95
Q 5.55 -329.95 12.25 -336.7 19 -343.4 19 -352.95 Z"/>
</g>

<g id="Mask_xumm_logo_light_svg_Layer_1__Clip_Group__0_2_MASK_0_FILL">
<path fill="#FFFFFF" stroke="none" d="
M 347 54
L 347 0 0 0 0 54 347 54 Z"/>
</g>

<g id="xumm_logo_light_svg_Layer_1__Clip_Group__0_Layer2_0_MEMBER_0_FILL">
<path fill="#FFFFFF" stroke="none" d="
M 108.7 7.4
Q 108.5 6 107.9 4.8 106.45 2.25 100.45 2.25 94.15 2.25 92.95 4.75 92.15 6.4 92 7.35 91.9 8.05 91.9 10.65
L 91.9 27.9
Q 91.9 31.75 89.5 34.05 87.25 36.4 83.3 36.4 79.6 36.4 77.2 34.15 74.95 32 74.95 27.9
L 74.95 10.95
Q 74.95 7.5 74.4 6.05 73.2 2.3 66.45 2.3 60.25 2.3 58.9 4.9 58.35 6.1 58.05 7.4 57.95 8.15 57.95 10.8
L 57.95 27.75
Q 57.95 38.45 64.3 45.9 67.35 49.35 72.95 51.15 77.8 52.7 83.25 52.7 88.25 52.5 93.15 50.9 98.85 49 102.05 45.9 108.85 39.1 108.85 27.85
L 108.85 10.7
Q 108.85 8.15 108.7 7.4 Z"/>
</g>

<g id="xumm_logo_light_svg_Layer_1__Clip_Group__0_Layer2_0_MEMBER_1_FILL">
<path fill="#FFFFFF" stroke="none" d="
M 48.3 16.2
Q 51.75 12.75 51.75 10.3 51.75 7.7 48.3 4.25 44.9 0.8 42.45 0.8 40 0.8 36.6 4.25
L 26 15.1 15.15 4.2
Q 11.65 0.7 9.3 0.7 7.05 0.7 3.45 4.2 0 7.6 0 10.25 0 12.65 3.5 16.2
L 14.1 26.95 3.45 37.85
Q 0 41.3 0 43.9 0 46.35 3.5 49.9 7 53.25 9.35 53.25 11.8 53.25 15.25 49.8
L 26 39 36.6 49.8
Q 40 53.25 42.45 53.25 44.9 53.25 48.3 49.9 51.75 46.45 51.75 44 51.75 41.35 48.3 37.95
L 37.65 27.05 48.3 16.2 Z"/>
</g>

<g id="xumm_logo_light_svg_Layer_1__Clip_Group__0_Layer2_0_MEMBER_2_FILL">
<path fill="#FFFFFF" stroke="none" d="
M 163.55 20.1
Q 165.05 18.55 167.3 18.55 169.5 18.55 170.95 20 173.2 22.35 173.2 26.2
L 173.2 43.2
Q 173.2 46.8 173.75 48.1 174.95 51.8 181.7 51.8 187.9 51.8 189.25 49.25 189.85 47.9 190.1 46.75 190.2 46 190.2 43.35
L 190.2 26.4
Q 190.2 15.65 183.85 8.2 177.75 1.35 167.3 1.35 159.15 1.2 152.85 6.35 147.1 1.25 138.15 1.25 128.75 1.25 121.95 8.15 115.1 15 115.1 26.2
L 115.1 43.35
Q 115.1 45.15 115.3 46.65 115.35 47.8 116.1 49.25 117.35 51.8 123.55 51.8 129.75 51.8 131 49.3 131.6 48.15 132 46.75
L 132.05 26.2
Q 132.05 22.35 134.45 20.1 136 18.55 138.25 18.55 140.4 18.55 141.85 20 144.1 22.25 144.1 26.2
L 144.1 43.25
Q 144.1 44.45 144.25 46.55 144.4 47.75 145.05 49.15 146.35 51.75 152.55 51.75
L 152.7 51.75
Q 158.9 51.75 160.25 49.15 160.7 48.25 161.15 46.65
L 161.2 24.95
Q 161.55 22.1 163.55 20.1 Z"/>
</g>

<g id="xumm_logo_light_svg_Layer_1__Clip_Group__0_Layer2_0_MEMBER_3_FILL">
<path fill="#FFFFFF" stroke="none" d="
M 244 20.15
Q 245.55 18.65 247.75 18.65 249.95 18.65 251.4 20.1 253.65 22.35 253.65 26.3
L 253.65 43.25
Q 253.65 46.85 254.2 48.2 255.45 51.9 262.15 51.9 268.35 51.9 269.7 49.3 270.15 48.4 270.6 46.8
L 270.65 26.45
Q 270.65 15.75 264.3 8.3 258.35 1.45 247.75 1.45 239.65 1.15 233.3 6.35 227.65 1.25 218.65 1.25 209.2 1.25 202.4 8.15 195.6 14.95 195.6 26.2
L 195.6 43.35
Q 195.6 45.55 195.75 46.65 195.8 47.8 196.55 49.25 197.85 51.8 204 51.8 210.2 51.8 211.5 49.3 212.25 47.75 212.45 46.75
L 212.5 26.2
Q 212.5 22.4 214.95 20.1 216.45 18.55 218.7 18.55 220.85 18.55 222.3 20 224.55 22.25 224.55 26.15
L 224.55 43.35
Q 224.55 45.15 224.75 46.65 224.8 47.8 225.55 49.25 226.8 51.8 233 51.8
L 233.15 51.8
Q 239.45 51.8 240.7 49.25 241.35 48 241.6 46.75
L 241.65 25
Q 242 22.15 244 20.15 Z"/>
</g>

<g id="xumm_logo_light_svg_Layer_1__Clip_Group__0_Layer2_0_MEMBER_4_FILL">
<path fill="#3051FC" stroke="none" d="
M 344.05 2.3
Q 341.3 -0.15 337.6 0.05 333.95 0.25 331.45 2.95
L 307.7 29.3 298.05 19.1
Q 295.5 16.4 291.8 16.35 288.1 16.25 285.45 18.8 282.75 21.35 282.65 25.05 282.55 28.75 285.1 31.45
L 301.35 48.6
Q 303.85 51.4 307.9 51.4 311.8 51.4 314.4 48.5
L 344.7 15
Q 347.15 12.25 346.95 8.55 346.75 4.8 344.05 2.3 Z"/>
</g>
</defs>

<g transform="matrix( 0.27911376953125, 0, 0, 0.2790985107421875, 151.25,130.55) ">
<g transform="matrix( 1, 0, 0, 1, 0,0) ">
<use xlink:href="#Symbol_1_copy_0_Layer1_0_FILL"/>
</g>

<g transform="matrix( 1, 0, 0, 1, 0,0) ">
<use xlink:href="#Symbol_1_copy_0_Layer0_0_FILL"/>
</g>

<g transform="matrix( 0.576690673828125, 0, 0, 0.576690673828125, -513.25,-368.25) ">
<mask id="Mask_Mask_1">
<g transform="matrix( 1, 0, 0, 1, 0,0) ">
<use xlink:href="#Mask_xumm_logo_light_svg_Layer_1__Clip_Group__0_2_MASK_0_FILL"/>
</g>
</mask>

<g mask="url(#Mask_Mask_1)">
<g transform="matrix( 1, 0, 0, 1, 0,0) ">
<use xlink:href="#xumm_logo_light_svg_Layer_1__Clip_Group__0_Layer2_0_MEMBER_0_FILL"/>
</g>

<g transform="matrix( 1, 0, 0, 1, 0,0) ">
<use xlink:href="#xumm_logo_light_svg_Layer_1__Clip_Group__0_Layer2_0_MEMBER_1_FILL"/>
</g>

<g transform="matrix( 1, 0, 0, 1, 0,0) ">
<use xlink:href="#xumm_logo_light_svg_Layer_1__Clip_Group__0_Layer2_0_MEMBER_2_FILL"/>
</g>

<g transform="matrix( 1, 0, 0, 1, 0,0) ">
<use xlink:href="#xumm_logo_light_svg_Layer_1__Clip_Group__0_Layer2_0_MEMBER_3_FILL"/>
</g>

<g transform="matrix( 1, 0, 0, 1, 0,0) ">
<use xlink:href="#xumm_logo_light_svg_Layer_1__Clip_Group__0_Layer2_0_MEMBER_4_FILL"/>
</g>
</g>
</g>
</g>
</svg>
