
<svg xmlns="http://www.w3.org/2000/svg" version="1.1" xmlns:xlink="http://www.w3.org/1999/xlink" preserveAspectRatio="none" x="0px" y="0px" width="295px" height="565px" viewBox="0 0 295 565">
<defs>
<g id="Symbol_1_copy_0_Layer0_0_FILL">
<path fill="#19FF83" stroke="none" d="
M -463 380.7
L -491 380.7
Q -507 380.7 -507 396.7
L -507 424.7
Q -507 440.7 -491 440.7
L -463 440.7
Q -447 440.7 -447 424.7
L -447 396.7
Q -447 380.7 -463 380.7
M -507 334.7
Q -507 340.3 -505 343.95 -501.4 350.7 -491 350.7
L -463 350.7
Q -452.6 350.7 -448.95 343.95 -447 340.3 -447 334.7
L -447 306.7
Q -447 290.7 -463 290.7
L -491 290.7
Q -507 290.7 -507 306.7
L -507 334.7
M -507 216.7
L -507 244.7
Q -507 260.7 -491 260.7
L -463 260.7
Q -447 260.7 -447 244.7
L -447 216.7
Q -447 200.7 -463 200.7
L -491 200.7
Q -507 200.7 -507 216.7
M -447 126.7
Q -447 110.7 -463 110.7
L -491 110.7
Q -507 110.7 -507 126.7
L -507 154.7
Q -507 170.7 -491 170.7
L -463 170.7
Q -447 170.7 -447 154.7
L -447 126.7
M -447 36.7
Q -447 20.7 -463 20.7
L -491 20.7
Q -507 20.7 -507 36.7
L -507 64.7
Q -507 80.7 -491 80.7
L -463 80.7
Q -447 80.7 -447 64.7
L -447 36.7 Z"/>
</g>
</defs>

<g transform="matrix( 0.5006561279296875, 0, 0, 0.5006561279296875, 271.3,234.15) ">
<g transform="matrix( 1, 0, 0, 1, 0,0) ">
<use xlink:href="#Symbol_1_copy_0_Layer0_0_FILL"/>
</g>
</g>
</svg>
