
<svg xmlns="http://www.w3.org/2000/svg" version="1.1" xmlns:xlink="http://www.w3.org/1999/xlink" preserveAspectRatio="none" x="0px" y="0px" width="243px" height="278px" viewBox="0 0 243 278">
<defs>
<g id="Layer0_0_MEMBER_0_MEMBER_0_FILL">
<path fill="{{color}}" stroke="none" d="
M 1302.5 610.7
L 1299.95 608.15 1098.05 466.7
Q 1093.25 462.85 1086.5 462.85 1079.75 462.85 1074.9 466.7
L 882 597.85 695.55 465.4
Q 690.75 461.55 684 461.55 677.25 461.55 672.4 465.4
L 470.5 606.85
Q 469.9 606.85 469.25 607.5 468.6 608.15 467.95 608.15
L 467.3 608.3
Q 466.65 608.6 466.65 609.4 466 610.05 464.75 612 463.45 613.9 462.8 614.55
L 462.8 615.85
Q 461.95 617.55 461.65 619.7 461.5 621 461.5 623.55
L 461.5 1270.4
Q 461.5 1275.1 464.05 1279.75 466.5 1284.1 470.5 1287.1
L 672.4 1428.55 673.7 1428.55 675 1429.85 676.25 1429.85
Q 678.9 1431.15 680.3 1431.65 682.7 1432.45 685.25 1432.45 687.65 1432.45 689.75 1431.65 691.05 1431.15 694.25 1429.85
L 695.55 1429.85
Q 696.85 1429.85 696.85 1428.55
L 698.15 1428.55 888.45 1294.85 1078.75 1428.55 1080.05 1428.55 1081.35 1429.85 1082.65 1429.85
Q 1085.2 1431.15 1086.65 1431.65 1089.05 1432.45 1091.65 1432.45 1093.25 1432.45 1095.65 1431.65 1097.1 1431.15 1100.65 1429.85
L 1101.9 1429.85
Q 1103.2 1429.85 1103.2 1428.55
L 1104.5 1428.55 1306.4 1287.1 1307.65 1285.85 1307.65 617.15
Q 1307.65 616.35 1307.05 615.35
L 1306.4 614.55 1305.1 613.3
Q 1305.1 612.55 1304.3 612 1302.85 611.05 1302.5 610.7
M 1067.2 1059.5
L 1067.2 1373.3 906.45 1261.4 906.45 946.35 1067.2 1059.5
M 502.65 866.6
L 502.65 663.45 648 765 502.65 866.6
M 702 755.7
Q 699.55 751.3 695.55 748.3
L 518.1 623.55 684 507.85 870.45 639
Q 875.25 642.85 882 642.85 888.75 642.85 893.6 639
L 1086.5 507.85 1252.35 623.55 1074.9 748.3
Q 1070.9 751.3 1068.45 755.7 1065.9 760.3 1065.9 765 1065.9 769.7 1068.45 774.35 1070.9 778.8 1074.9 781.75
L 1252.35 906.5 1086.5 1023.5 897.45 889.75 896.15 889.75
Q 894.9 889.75 894.9 888.45
L 893.6 888.45
Q 892.3 888.45 892.3 887.2
L 876.85 887.2 876.25 887.35
Q 875.6 887.65 875.6 888.45
L 874.3 888.45 873.65 888.6
Q 873 888.95 873 889.75
L 871.75 889.75 684 1023.5 518.1 906.5 695.55 781.75
Q 699.55 778.8 702 774.35 704.55 769.7 704.55 765 704.55 760.3 702 755.7
M 502.65 1260.1
L 502.65 946.35 663.4 1058.2 663.4 1372 502.65 1260.1 Z"/>
</g>
</defs>

<g transform="matrix( 0.287261962890625, 0, 0, 0.287261962890625, -132.55,-132.6) ">
<use xlink:href="#Layer0_0_MEMBER_0_MEMBER_0_FILL"/>
</g>
</svg>
