<svg width="34" height="34" viewBox="0 0 34 34" fill="none" xmlns="http://www.w3.org/2000/svg">
<path fill-rule="evenodd" clip-rule="evenodd" d="M21.5142 20.5022H22.6334L28.6401 26.5372C29.2209 27.118 29.2209 28.0672 28.6401 28.648C28.0592 29.2289 27.1101 29.2289 26.5292 28.648L20.5084 22.6272V21.508L20.1259 21.1114C18.1426 22.8114 15.4367 23.6897 12.5609 23.208C8.62258 22.5422 5.47758 19.2555 4.99591 15.2889C4.25925 9.29636 9.30258 4.25302 15.2951 4.98969C19.2617 5.47136 22.5484 8.61636 23.2142 12.5547C23.6959 15.4305 22.8176 18.1364 21.1176 20.1197L21.5142 20.5022ZM7.75841 14.1272C7.75841 17.6547 10.6059 20.5022 14.1334 20.5022C17.6609 20.5022 20.5084 17.6547 20.5084 14.1272C20.5084 10.5997 17.6609 7.75219 14.1334 7.75219C10.6059 7.75219 7.75841 10.5997 7.75841 14.1272Z" fill="#FEFEFE"/>
</svg>
