<?xml version="1.0" encoding="utf-8"?>
<!-- Generator: Adobe Illustrator 26.5.0, SVG Export Plug-In . SVG Version: 6.00 Build 0)  -->
<svg version="1.1" xmlns="http://www.w3.org/2000/svg" xmlns:xlink="http://www.w3.org/1999/xlink" x="0px" y="0px"
	 viewBox="0 0 28 28" style="enable-background:new 0 0 28 28;" xml:space="preserve">
<style type="text/css">
	.st0{fill:none;stroke:#19FF83;stroke-miterlimit:10;}
	.st1{fill:#FFFFFF;}
	.st2{fill:#19FF83;}
</style>
<g id="Layer_3">
</g>
<g id="Layer_2">
	<path class="st0" d="M14,24.5c0.2,0,0.5-0.1,0.7-0.2c6.1-3.3,8.1-4.8,8.1-8.6V7.8c0-1.3-0.5-1.7-1.6-2.1c-1.2-0.5-5.1-1.9-6.2-2.3
		c-0.4-0.1-0.7-0.2-1.1-0.2s-0.7,0.1-1.1,0.2c-1.2,0.4-5.1,1.8-6.3,2.3C5.5,6,5.1,6.5,5.1,7.8v7.9c0,3.8,2.1,5.4,8.1,8.6
		C13.5,24.5,13.8,24.5,14,24.5z M7.1,15.2"/>
</g>
<g id="Layer_1">
	<path class="st1" d="M14,22.8c0.2,0,0.4-0.1,0.6-0.2c5.1-2.8,6.8-4,6.8-7.2V8.8c0-1.1-0.4-1.4-1.3-1.8c-1-0.4-4.3-1.6-5.2-1.9
		C14.6,5,14.3,4.9,14,4.9S13.4,5,13.1,5.1c-1,0.3-4.3,1.5-5.3,1.9C6.9,7.3,6.5,7.7,6.5,8.8v6.6c0,3.2,1.8,4.5,6.8,7.2
		C13.6,22.8,13.8,22.8,14,22.8z M14,20.9c-0.1,0-0.2,0-0.5-0.2c-4-2.4-5.3-3.1-5.3-5.7V9c0-0.3,0.1-0.4,0.3-0.5
		c1.3-0.5,3.8-1.4,5-1.8c0.2-0.1,0.3-0.1,0.5-0.1c0.1,0,0.3,0,0.5,0.1c1.2,0.5,3.7,1.3,5,1.8c0.3,0.1,0.3,0.2,0.3,0.5v6
		c0,2.6-1.3,3.3-5.3,5.7C14.2,20.9,14.1,20.9,14,20.9z"/>
	<path class="st2" d="M13,17.6c0.3,0,0.6-0.2,0.8-0.4l4-6.2c0.1-0.2,0.2-0.4,0.2-0.6c0-0.4-0.4-0.7-0.8-0.7c-0.3,0-0.5,0.1-0.7,0.4
		L13,15.7l-1.6-2.1c-0.2-0.3-0.4-0.4-0.7-0.4c-0.4,0-0.8,0.4-0.8,0.8c0,0.2,0.1,0.4,0.2,0.6l2.1,2.5C12.4,17.4,12.7,17.6,13,17.6z"
		/>
</g>
</svg>
