
<svg xmlns="http://www.w3.org/2000/svg" version="1.1" xmlns:xlink="http://www.w3.org/1999/xlink" preserveAspectRatio="none" x="0px" y="0px" width="512px" height="512px" viewBox="0 0 512 512">
<defs>
<g id="Layer0_0_FILL">
<path fill="#000000" stroke="none" d="
M 436.9 75.1
Q 401.5 39.65 355.6 20.2 308.05 0.1 256 0 203.9 0 156.35 20.1 110.4 39.55 75 75 39.55 110.45 20.1 156.35 0 203.95 0 256 0 308.1 20.1 355.65 39.55 401.6 75 437.05 110.4 472.45 156.35 491.9 203.9 512 256 512 308.05 512 355.65 491.9 401.55 472.45 437 437.05 472.45 401.6 491.9 355.65 512 308.1 512 256 511.95 203.95 491.8 156.4 472.35 110.5 436.9 75.1
M 425.7 86.3
Q 458.9 119.55 477.15 162.6 496 207.2 496 256 495.95 304.8 477.05 349.4 458.85 392.45 425.6 425.65 392.4 458.85 349.35 477.1 304.8 495.95 256 496 207.15 496 162.6 477.15 119.5 458.9 86.3 425.7 53.1 392.5 34.85 349.4 16 304.85 16 256 16 207.2 34.85 162.6 53.1 119.55 86.3 86.3 119.5 53.1 162.6 34.85 207.2 16 256 16 304.8 16 349.4 34.85 392.45 53.1 425.7 86.3 Z"/>
</g>

<g id="Layer0_1_FILL">
<path fill="#000000" stroke="none" d="
M 256 32
Q 252.65 32 250.35 34.35 248 36.7 248 40 248 43.35 250.35 45.65 252.65 48 256 48 259.3 48 261.65 45.65 264 43.35 264 40 264 36.7 261.65 34.35 259.3 32 256 32 Z"/>
</g>

<g id="Layer0_2_FILL">
<path fill="#000000" stroke="none" d="
M 256 464
Q 252.65 464 250.35 466.35 248 468.7 248 472 248 475.35 250.35 477.65 252.65 480 256 480 259.3 480 261.65 477.65 264 475.35 264 472 264 468.7 261.65 466.35 259.3 464 256 464 Z"/>
</g>

<g id="Layer0_3_FILL">
<path fill="#000000" stroke="none" d="
M 40 248
Q 36.65 248 34.35 250.35 32 252.7 32 256 32 259.35 34.35 261.65 36.65 264 40 264 43.3 264 45.65 261.65 48 259.35 48 256 48 252.7 45.65 250.35 43.3 248 40 248 Z"/>
</g>

<g id="Layer0_4_FILL">
<path fill="#000000" stroke="none" d="
M 472 248
Q 468.65 248 466.35 250.35 464 252.7 464 256 464 259.35 466.35 261.65 468.65 264 472 264 475.3 264 477.65 261.65 480 259.35 480 256 480 252.7 477.65 250.35 475.3 248 472 248 Z"/>
</g>

<g id="Layer0_5_FILL">
<path fill="#000000" stroke="none" d="
M 414.35 97.65
Q 412.05 95.3 408.7 95.3 405.4 95.3 403.05 97.65 400.75 100 400.75 103.3 400.75 106.6 403.05 108.95 405.4 111.3 408.7 111.3 412.05 111.3 414.35 108.95 416.7 106.6 416.7 103.3 416.7 100 414.35 97.65 Z"/>
</g>

<g id="Layer0_6_FILL">
<path fill="#000000" stroke="none" d="
M 103.25 400.8
Q 99.95 400.8 97.6 403.1 95.25 405.45 95.25 408.75 95.25 412.1 97.6 414.4 99.95 416.75 103.25 416.75 106.55 416.75 108.9 414.4 111.25 412.1 111.25 408.75 111.25 405.45 108.9 403.1 106.55 400.8 103.25 400.8 Z"/>
</g>

<g id="Layer0_7_FILL">
<path fill="#000000" stroke="none" d="
M 103.25 95.3
Q 99.95 95.3 97.6 97.65 95.25 100 95.25 103.3 95.25 106.6 97.6 108.95 99.95 111.3 103.25 111.3 106.55 111.3 108.9 108.95 111.25 106.6 111.25 103.3 111.25 100 108.9 97.65 106.55 95.3 103.25 95.3 Z"/>
</g>

<g id="Layer0_8_FILL">
<path fill="#000000" stroke="none" d="
M 414.35 403.1
Q 412.05 400.8 408.7 400.8 405.4 400.8 403.05 403.1 400.75 405.45 400.75 408.75 400.75 412.1 403.05 414.4 405.4 416.75 408.7 416.75 412.05 416.75 414.35 414.4 416.7 412.1 416.7 408.75 416.7 405.45 414.35 403.1 Z"/>
</g>

<g id="Layer0_9_FILL">
<path fill="#000000" stroke="none" d="
M 176.4 49.1
Q 173.35 47.85 170.25 49.1 167.2 50.35 165.9 53.4 164.65 56.45 165.9 59.55 167.2 62.6 170.25 63.85 173.3 65.15 176.35 63.85 179.45 62.6 180.7 59.55 182 56.45 180.7 53.4 179.45 50.35 176.4 49.1 Z"/>
</g>

<g id="Layer0_10_FILL">
<path fill="#000000" stroke="none" d="
M 341.7 448.2
Q 338.65 446.95 335.6 448.2 332.5 449.5 331.25 452.55 330 455.6 331.25 458.65 332.55 461.7 335.6 463 338.6 464.25 341.7 462.95 344.75 461.7 346.05 458.65 347.3 455.6 346.05 452.5 344.8 449.45 341.7 448.2 Z"/>
</g>

<g id="Layer0_11_FILL">
<path fill="#000000" stroke="none" d="
M 59.5 331.3
Q 56.4 330.05 53.35 331.3 50.3 332.6 49.05 335.65 47.8 338.65 49.05 341.75 50.3 344.8 53.35 346.1 56.4 347.35 59.5 346.1 62.55 344.8 63.8 341.75 65.05 338.65 63.8 335.6 62.5 332.55 59.5 331.3 Z"/>
</g>

<g id="Layer0_12_FILL">
<path fill="#000000" stroke="none" d="
M 452.5 180.75
Q 455.55 182 458.6 180.75 461.65 179.5 462.95 176.45 464.2 173.4 462.9 170.3 461.65 167.25 458.6 165.95 455.55 164.7 452.45 165.95 449.4 167.25 448.15 170.3 446.9 173.4 448.15 176.45 449.45 179.5 452.5 180.75 Z"/>
</g>

<g id="Layer0_13_FILL">
<path fill="#000000" stroke="none" d="
M 341.7 49.1
Q 338.6 47.85 335.6 49.1 332.55 50.35 331.25 53.4 330 56.45 331.25 59.55 332.5 62.55 335.55 63.85
L 335.6 63.85
Q 338.65 65.15 341.7 63.85 344.8 62.6 346.05 59.55 347.3 56.45 346.05 53.4 344.75 50.35 341.7 49.1 Z"/>
</g>

<g id="Layer0_14_FILL">
<path fill="#000000" stroke="none" d="
M 180.7 452.55
Q 179.45 449.5 176.35 448.2 173.3 446.95 170.25 448.2 167.2 449.45 165.9 452.5 164.65 455.6 165.9 458.65 167.2 461.7 170.25 462.95 173.35 464.25 176.4 463 179.45 461.7 180.7 458.65 182 455.6 180.7 452.55 Z"/>
</g>

<g id="Layer0_15_FILL">
<path fill="#000000" stroke="none" d="
M 59.5 165.95
Q 56.4 164.7 53.35 165.95 50.3 167.25 49.05 170.3 47.8 173.4 49.05 176.45 50.3 179.5 53.35 180.75 56.4 182 59.5 180.75 62.5 179.5 63.8 176.45
L 63.8 176.4
Q 65.1 173.35 63.8 170.3 62.55 167.25 59.5 165.95 Z"/>
</g>

<g id="Layer0_16_FILL">
<path fill="#000000" stroke="none" d="
M 448.15 341.75
Q 449.4 344.8 452.45 346.1 455.55 347.35 458.6 346.1 461.65 344.8 462.9 341.75 464.2 338.65 462.95 335.65 461.65 332.6 458.6 331.3 455.55 330.05 452.5 331.3 449.45 332.55 448.15 335.6 446.9 338.65 448.15 341.75 Z"/>
</g>

<g id="Layer0_17_FILL">
<path fill="#000000" stroke="none" d="
M 218.3 37.55
Q 215.5 35.7 212.3 36.35 209.05 37 207.2 39.75 205.35 42.5 206 45.75 206.65 49 209.4 50.85 212.15 52.65 215.4 52 218.65 51.35 220.5 48.6 222.35 45.85 221.7 42.6 221 39.35 218.3 37.55 Z"/>
</g>

<g id="Layer0_18_FILL">
<path fill="#000000" stroke="none" d="
M 302.55 461.2
Q 299.8 459.35 296.55 460 293.3 460.7 291.45 463.45 289.6 466.2 290.25 469.45 290.95 472.7 293.7 474.55 296.45 476.35 299.7 475.7 302.95 475.05 304.75 472.3 306.6 469.55 305.95 466.3 305.3 463.05 302.55 461.2 Z"/>
</g>

<g id="Layer0_19_FILL">
<path fill="#000000" stroke="none" d="
M 48.55 291.5
Q 45.8 289.65 42.55 290.3 39.3 291 37.5 293.75 35.65 296.5 36.3 299.75 36.95 303 39.7 304.8 42.45 306.65 45.7 306 48.95 305.35 50.8 302.6 52.65 299.85 52 296.6 51.35 293.35 48.55 291.5 Z"/>
</g>

<g id="Layer0_20_FILL">
<path fill="#000000" stroke="none" d="
M 461.2 209.45
Q 459.35 212.2 460 215.45 460.65 218.7 463.4 220.55 466.15 222.4 469.4 221.75 472.65 221.05 474.5 218.35 476.3 215.55 475.65 212.35 475 209.1 472.25 207.25 469.5 205.4 466.25 206.05 463 206.7 461.2 209.45 Z"/>
</g>

<g id="Layer0_21_FILL">
<path fill="#000000" stroke="none" d="
M 377.55 84.3
Q 380.8 83.65 382.65 80.85 384.5 78.1 383.85 74.9 383.15 71.65 380.4 69.8 377.65 67.95 374.45 68.6 371.2 69.2 369.35 72 367.5 74.75 368.15 78 368.75 81.2 371.55 83.1 374.3 84.95 377.55 84.3 Z"/>
</g>

<g id="Layer0_22_FILL">
<path fill="#000000" stroke="none" d="
M 134.4 427.75
Q 131.2 428.45 129.3 431.2 127.45 433.95 128.1 437.2 128.8 440.4 131.55 442.25 134.3 444.1 137.55 443.5 140.75 442.85 142.6 440.05 144.45 437.3 143.85 434.05 143.2 430.85 140.4 428.95 137.65 427.1 134.4 427.75 Z"/>
</g>

<g id="Layer0_23_FILL">
<path fill="#000000" stroke="none" d="
M 74.85 128.15
Q 71.6 128.85 69.75 131.6 67.9 134.35 68.55 137.6 69.15 140.8 71.95 142.65 74.7 144.5 77.95 143.9 81.15 143.25 83.05 140.45 84.9 137.7 84.25 134.45 83.55 131.2 80.8 129.35 78.05 127.5 74.85 128.15 Z"/>
</g>

<g id="Layer0_24_FILL">
<path fill="#000000" stroke="none" d="
M 437.15 383.9
Q 440.35 383.2 442.2 380.45 444.05 377.7 443.45 374.5 442.8 371.25 440 369.4 437.25 367.55 434 368.2 430.8 368.8 428.9 371.6 427.05 374.35 427.7 377.6 428.4 380.85 431.15 382.7 433.9 384.55 437.15 383.9 Z"/>
</g>

<g id="Layer0_25_FILL">
<path fill="#000000" stroke="none" d="
M 137.55 68.55
Q 134.3 67.9 131.55 69.75
L 131.55 69.8
Q 128.8 71.65 128.1 74.9 127.45 78.1 129.3 80.85 131.15 83.6 134.4 84.3 137.65 84.95 140.4 83.1 143.2 81.2 143.85 78 144.45 74.75 142.6 72 140.75 69.25 137.55 68.55 Z"/>
</g>

<g id="Layer0_26_FILL">
<path fill="#000000" stroke="none" d="
M 377.55 427.75
Q 374.3 427.1 371.55 428.95 368.75 430.85 368.15 434.05 367.5 437.3 369.35 440.05 371.2 442.85 374.45 443.5 377.65 444.1 380.4 442.25 383.15 440.4 383.85 437.2 384.5 433.95 382.65 431.2 380.8 428.45 377.55 427.75 Z"/>
</g>

<g id="Layer0_27_FILL">
<path fill="#000000" stroke="none" d="
M 77.95 368.2
Q 74.7 367.55 71.95 369.4 69.15 371.25 68.55 374.5 67.9 377.7 69.75 380.45 71.6 383.2 74.85 383.9 78.05 384.55 80.8 382.7 83.55 380.85 84.25 377.6 84.9 374.35 83.05 371.6 81.15 368.8 77.95 368.2 Z"/>
</g>

<g id="Layer0_28_FILL">
<path fill="#000000" stroke="none" d="
M 434 143.9
Q 437.25 144.5 440 142.65 442.8 140.8 443.45 137.6 444.05 134.35 442.2 131.6 440.35 128.85 437.15 128.15 433.9 127.5 431.15 129.35 428.4 131.2 427.7 134.45 427.05 137.7 428.9 140.45 430.8 143.25 434 143.9 Z"/>
</g>

<g id="Layer0_29_FILL">
<path fill="#000000" stroke="none" d="
M 290.25 42.6
Q 289.6 45.85 291.45 48.6 293.3 51.35 296.55 52 299.8 52.65 302.55 50.85 305.3 49 305.95 45.75 306.6 42.5 304.75 39.75 302.95 37 299.7 36.35 296.45 35.7 293.7 37.55 290.95 39.35 290.25 42.6 Z"/>
</g>

<g id="Layer0_30_FILL">
<path fill="#000000" stroke="none" d="
M 220.5 463.45
Q 218.65 460.7 215.4 460 212.15 459.35 209.4 461.2 206.65 463.05 206 466.3 205.35 469.55 207.2 472.3 209.05 475.05 212.25 475.7 215.5 476.35 218.25 474.55 221 472.7 221.7 469.45 222.35 466.2 220.5 463.45 Z"/>
</g>

<g id="Layer0_31_FILL">
<path fill="#000000" stroke="none" d="
M 50.8 209.45
Q 48.95 206.7 45.7 206.05 42.45 205.4 39.7 207.25 36.95 209.1 36.3 212.3
L 36.3 212.35
Q 35.65 215.55 37.5 218.35 39.3 221.05 42.55 221.75 45.8 222.4 48.55 220.55 51.3 218.7 51.95 215.45 52.6 212.2 50.8 209.45 Z"/>
</g>

<g id="Layer0_32_FILL">
<path fill="#000000" stroke="none" d="
M 474.5 293.75
Q 472.65 291 469.4 290.3 466.15 289.65 463.4 291.5 460.65 293.35 460 296.6 459.35 299.85 461.2 302.6 463 305.35 466.25 306 469.5 306.65 472.25 304.8 475 302.95 475.65 299.7 476.3 296.5 474.5 293.75 Z"/>
</g>
</defs>

<g transform="matrix( 0.7421722412109375, 0, 0, 0.7421722412109375, 66,66) ">
<use xlink:href="#Layer0_0_FILL"/>
</g>

<g transform="matrix( 0.7421722412109375, 0, 0, 0.7421722412109375, 66,66) ">
<use xlink:href="#Layer0_1_FILL"/>
</g>

<g transform="matrix( 0.7421722412109375, 0, 0, 0.7421722412109375, 66,66) ">
<use xlink:href="#Layer0_2_FILL"/>
</g>

<g transform="matrix( 0.7421722412109375, 0, 0, 0.7421722412109375, 66,66) ">
<use xlink:href="#Layer0_3_FILL"/>
</g>

<g transform="matrix( 0.7421722412109375, 0, 0, 0.7421722412109375, 66,66) ">
<use xlink:href="#Layer0_4_FILL"/>
</g>

<g transform="matrix( 0.7421722412109375, 0, 0, 0.7421722412109375, 66,66) ">
<use xlink:href="#Layer0_5_FILL"/>
</g>

<g transform="matrix( 0.7421722412109375, 0, 0, 0.7421722412109375, 66,66) ">
<use xlink:href="#Layer0_6_FILL"/>
</g>

<g transform="matrix( 0.7421722412109375, 0, 0, 0.7421722412109375, 66,66) ">
<use xlink:href="#Layer0_7_FILL"/>
</g>

<g transform="matrix( 0.7421722412109375, 0, 0, 0.7421722412109375, 66,66) ">
<use xlink:href="#Layer0_8_FILL"/>
</g>

<g transform="matrix( 0.7421722412109375, 0, 0, 0.7421722412109375, 66,66) ">
<use xlink:href="#Layer0_9_FILL"/>
</g>

<g transform="matrix( 0.7421722412109375, 0, 0, 0.7421722412109375, 66,66) ">
<use xlink:href="#Layer0_10_FILL"/>
</g>

<g transform="matrix( 0.7421722412109375, 0, 0, 0.7421722412109375, 66,66) ">
<use xlink:href="#Layer0_11_FILL"/>
</g>

<g transform="matrix( 0.7421722412109375, 0, 0, 0.7421722412109375, 66,66) ">
<use xlink:href="#Layer0_12_FILL"/>
</g>

<g transform="matrix( 0.7421722412109375, 0, 0, 0.7421722412109375, 66,66) ">
<use xlink:href="#Layer0_13_FILL"/>
</g>

<g transform="matrix( 0.7421722412109375, 0, 0, 0.7421722412109375, 66,66) ">
<use xlink:href="#Layer0_14_FILL"/>
</g>

<g transform="matrix( 0.7421722412109375, 0, 0, 0.7421722412109375, 66,66) ">
<use xlink:href="#Layer0_15_FILL"/>
</g>

<g transform="matrix( 0.7421722412109375, 0, 0, 0.7421722412109375, 66,66) ">
<use xlink:href="#Layer0_16_FILL"/>
</g>

<g transform="matrix( 0.7421722412109375, 0, 0, 0.7421722412109375, 66,66) ">
<use xlink:href="#Layer0_17_FILL"/>
</g>

<g transform="matrix( 0.7421722412109375, 0, 0, 0.7421722412109375, 66,66) ">
<use xlink:href="#Layer0_18_FILL"/>
</g>

<g transform="matrix( 0.7421722412109375, 0, 0, 0.7421722412109375, 66,66) ">
<use xlink:href="#Layer0_19_FILL"/>
</g>

<g transform="matrix( 0.7421722412109375, 0, 0, 0.7421722412109375, 66,66) ">
<use xlink:href="#Layer0_20_FILL"/>
</g>

<g transform="matrix( 0.7421722412109375, 0, 0, 0.7421722412109375, 66,66) ">
<use xlink:href="#Layer0_21_FILL"/>
</g>

<g transform="matrix( 0.7421722412109375, 0, 0, 0.7421722412109375, 66,66) ">
<use xlink:href="#Layer0_22_FILL"/>
</g>

<g transform="matrix( 0.7421722412109375, 0, 0, 0.7421722412109375, 66,66) ">
<use xlink:href="#Layer0_23_FILL"/>
</g>

<g transform="matrix( 0.7421722412109375, 0, 0, 0.7421722412109375, 66,66) ">
<use xlink:href="#Layer0_24_FILL"/>
</g>

<g transform="matrix( 0.7421722412109375, 0, 0, 0.7421722412109375, 66,66) ">
<use xlink:href="#Layer0_25_FILL"/>
</g>

<g transform="matrix( 0.7421722412109375, 0, 0, 0.7421722412109375, 66,66) ">
<use xlink:href="#Layer0_26_FILL"/>
</g>

<g transform="matrix( 0.7421722412109375, 0, 0, 0.7421722412109375, 66,66) ">
<use xlink:href="#Layer0_27_FILL"/>
</g>

<g transform="matrix( 0.7421722412109375, 0, 0, 0.7421722412109375, 66,66) ">
<use xlink:href="#Layer0_28_FILL"/>
</g>

<g transform="matrix( 0.7421722412109375, 0, 0, 0.7421722412109375, 66,66) ">
<use xlink:href="#Layer0_29_FILL"/>
</g>

<g transform="matrix( 0.7421722412109375, 0, 0, 0.7421722412109375, 66,66) ">
<use xlink:href="#Layer0_30_FILL"/>
</g>

<g transform="matrix( 0.7421722412109375, 0, 0, 0.7421722412109375, 66,66) ">
<use xlink:href="#Layer0_31_FILL"/>
</g>

<g transform="matrix( 0.7421722412109375, 0, 0, 0.7421722412109375, 66,66) ">
<use xlink:href="#Layer0_32_FILL"/>
</g>
</svg>
