<?xml version="1.0" encoding="utf-8"?>
<!-- Generator: Adobe Illustrator 26.5.0, SVG Export Plug-In . SVG Version: 6.00 Build 0)  -->
<svg version="1.1" xmlns="http://www.w3.org/2000/svg" xmlns:xlink="http://www.w3.org/1999/xlink" x="0px" y="0px"
	 viewBox="0 0 28 28" style="enable-background:new 0 0 28 28;" xml:space="preserve">
<style type="text/css">
	.st0{fill:#FFFFFF;}
	.st1{fill:#19FF83;}
</style>
<g id="Layer_2">
</g>
<g id="Layer_1">
	<path class="st0" d="M9.3,23.2h9.4c1.9,0,2.9-1,2.9-2.9v-8c0-1.2-0.2-1.8-0.9-2.6L16,5.1c-0.7-0.8-1.4-0.9-2.5-0.9H9.3
		c-1.9,0-2.9,1-2.9,2.9v13.3C6.5,22.2,7.4,23.2,9.3,23.2z M9.5,21.4c-0.8,0-1.3-0.4-1.3-1.2v-13c0-0.8,0.4-1.2,1.3-1.2h3.7v4.8
		c0,1.3,0.6,1.9,1.9,1.9h4.7v7.6c0,0.8-0.4,1.2-1.3,1.2H9.5z M15.3,11c-0.4,0-0.5-0.2-0.5-0.5V6.1l4.8,4.9H15.3z"/>
</g>
<g id="Layer_3">
	<path class="st1" d="M17.1,14.9h-6.3c-0.3,0-0.6,0.2-0.6,0.5c0,0.3,0.2,0.6,0.6,0.6h6.3c0.3,0,0.6-0.2,0.6-0.6
		C17.6,15.1,17.4,14.9,17.1,14.9z"/>
	<path class="st1" d="M17.1,17.8h-6.3c-0.3,0-0.6,0.2-0.6,0.6c0,0.3,0.2,0.5,0.6,0.5h6.3c0.3,0,0.6-0.2,0.6-0.5
		C17.6,18,17.4,17.8,17.1,17.8z"/>
</g>
</svg>
